// === Articulação: Racktom3_Center ===

// --- Mic: Overhead_L ---
<group> seq_position=1 // Round-Robin: A
<region> sample=Racktom3_Center_A_vel01_mic-Overhead_L.wav lovel=0 hivel=13
<region> sample=Racktom3_Center_A_vel02_mic-Overhead_L.wav lovel=14 hivel=27
<region> sample=Racktom3_Center_A_vel03_mic-Overhead_L.wav lovel=28 hivel=41
<region> sample=Racktom3_Center_A_vel04_mic-Overhead_L.wav lovel=42 hivel=55
<region> sample=Racktom3_Center_A_vel05_mic-Overhead_L.wav lovel=56 hivel=69
<region> sample=Racktom3_Center_A_vel06_mic-Overhead_L.wav lovel=70 hivel=83
<region> sample=Racktom3_Center_A_vel07_mic-Overhead_L.wav lovel=84 hivel=97
<region> sample=Racktom3_Center_A_vel08_mic-Overhead_L.wav lovel=98 hivel=111
<region> sample=Racktom3_Center_A_vel09_mic-Overhead_L.wav lovel=112 hivel=127
<group> seq_position=2 // Round-Robin: B
<region> sample=Racktom3_Center_B_vel01_mic-Overhead_L.wav lovel=0 hivel=13
<region> sample=Racktom3_Center_B_vel02_mic-Overhead_L.wav lovel=14 hivel=27
<region> sample=Racktom3_Center_B_vel03_mic-Overhead_L.wav lovel=28 hivel=41
<region> sample=Racktom3_Center_B_vel04_mic-Overhead_L.wav lovel=42 hivel=55
<region> sample=Racktom3_Center_B_vel05_mic-Overhead_L.wav lovel=56 hivel=69
<region> sample=Racktom3_Center_B_vel06_mic-Overhead_L.wav lovel=70 hivel=83
<region> sample=Racktom3_Center_B_vel07_mic-Overhead_L.wav lovel=84 hivel=97
<region> sample=Racktom3_Center_B_vel08_mic-Overhead_L.wav lovel=98 hivel=111
<region> sample=Racktom3_Center_B_vel09_mic-Overhead_L.wav lovel=112 hivel=127

// --- Mic: Overhead_R ---
<group> seq_position=1 // Round-Robin: A
<region> sample=Racktom3_Center_A_vel01_mic-Overhead_R.wav lovel=0 hivel=13
<region> sample=Racktom3_Center_A_vel02_mic-Overhead_R.wav lovel=14 hivel=27
<region> sample=Racktom3_Center_A_vel03_mic-Overhead_R.wav lovel=28 hivel=41
<region> sample=Racktom3_Center_A_vel04_mic-Overhead_R.wav lovel=42 hivel=55
<region> sample=Racktom3_Center_A_vel05_mic-Overhead_R.wav lovel=56 hivel=69
<region> sample=Racktom3_Center_A_vel06_mic-Overhead_R.wav lovel=70 hivel=83
<region> sample=Racktom3_Center_A_vel07_mic-Overhead_R.wav lovel=84 hivel=97
<region> sample=Racktom3_Center_A_vel08_mic-Overhead_R.wav lovel=98 hivel=111
<region> sample=Racktom3_Center_A_vel09_mic-Overhead_R.wav lovel=112 hivel=127
<group> seq_position=2 // Round-Robin: B
<region> sample=Racktom3_Center_B_vel01_mic-Overhead_R.wav lovel=0 hivel=13
<region> sample=Racktom3_Center_B_vel02_mic-Overhead_R.wav lovel=14 hivel=27
<region> sample=Racktom3_Center_B_vel03_mic-Overhead_R.wav lovel=28 hivel=41
<region> sample=Racktom3_Center_B_vel04_mic-Overhead_R.wav lovel=42 hivel=55
<region> sample=Racktom3_Center_B_vel05_mic-Overhead_R.wav lovel=56 hivel=69
<region> sample=Racktom3_Center_B_vel06_mic-Overhead_R.wav lovel=70 hivel=83
<region> sample=Racktom3_Center_B_vel07_mic-Overhead_R.wav lovel=84 hivel=97
<region> sample=Racktom3_Center_B_vel08_mic-Overhead_R.wav lovel=98 hivel=111
<region> sample=Racktom3_Center_B_vel09_mic-Overhead_R.wav lovel=112 hivel=127

// --- Mic: Racktom_3 ---
<group> seq_position=1 // Round-Robin: A
<region> sample=Racktom3_Center_A_vel01_mic-Racktom_3.wav lovel=0 hivel=13
<region> sample=Racktom3_Center_A_vel02_mic-Racktom_3.wav lovel=14 hivel=27
<region> sample=Racktom3_Center_A_vel03_mic-Racktom_3.wav lovel=28 hivel=41
<region> sample=Racktom3_Center_A_vel04_mic-Racktom_3.wav lovel=42 hivel=55
<region> sample=Racktom3_Center_A_vel05_mic-Racktom_3.wav lovel=56 hivel=69
<region> sample=Racktom3_Center_A_vel06_mic-Racktom_3.wav lovel=70 hivel=83
<region> sample=Racktom3_Center_A_vel07_mic-Racktom_3.wav lovel=84 hivel=97
<region> sample=Racktom3_Center_A_vel08_mic-Racktom_3.wav lovel=98 hivel=111
<region> sample=Racktom3_Center_A_vel09_mic-Racktom_3.wav lovel=112 hivel=127
<group> seq_position=2 // Round-Robin: B
<region> sample=Racktom3_Center_B_vel01_mic-Racktom_3.wav lovel=0 hivel=13
<region> sample=Racktom3_Center_B_vel02_mic-Racktom_3.wav lovel=14 hivel=27
<region> sample=Racktom3_Center_B_vel03_mic-Racktom_3.wav lovel=28 hivel=41
<region> sample=Racktom3_Center_B_vel04_mic-Racktom_3.wav lovel=42 hivel=55
<region> sample=Racktom3_Center_B_vel05_mic-Racktom_3.wav lovel=56 hivel=69
<region> sample=Racktom3_Center_B_vel06_mic-Racktom_3.wav lovel=70 hivel=83
<region> sample=Racktom3_Center_B_vel07_mic-Racktom_3.wav lovel=84 hivel=97
<region> sample=Racktom3_Center_B_vel08_mic-Racktom_3.wav lovel=98 hivel=111
<region> sample=Racktom3_Center_B_vel09_mic-Racktom_3.wav lovel=112 hivel=127

// --- Mic: Snare_Bottom ---
<group> seq_position=1 // Round-Robin: A
<region> sample=Racktom3_Center_A_vel01_mic-Snare_Bottom.wav lovel=0 hivel=13
<region> sample=Racktom3_Center_A_vel02_mic-Snare_Bottom.wav lovel=14 hivel=27
<region> sample=Racktom3_Center_A_vel03_mic-Snare_Bottom.wav lovel=28 hivel=41
<region> sample=Racktom3_Center_A_vel04_mic-Snare_Bottom.wav lovel=42 hivel=55
<region> sample=Racktom3_Center_A_vel05_mic-Snare_Bottom.wav lovel=56 hivel=69
<region> sample=Racktom3_Center_A_vel06_mic-Snare_Bottom.wav lovel=70 hivel=83
<region> sample=Racktom3_Center_A_vel07_mic-Snare_Bottom.wav lovel=84 hivel=97
<region> sample=Racktom3_Center_A_vel08_mic-Snare_Bottom.wav lovel=98 hivel=111
<region> sample=Racktom3_Center_A_vel09_mic-Snare_Bottom.wav lovel=112 hivel=127
<group> seq_position=2 // Round-Robin: B
<region> sample=Racktom3_Center_B_vel01_mic-Snare_Bottom.wav lovel=0 hivel=13
<region> sample=Racktom3_Center_B_vel02_mic-Snare_Bottom.wav lovel=14 hivel=27
<region> sample=Racktom3_Center_B_vel03_mic-Snare_Bottom.wav lovel=28 hivel=41
<region> sample=Racktom3_Center_B_vel04_mic-Snare_Bottom.wav lovel=42 hivel=55
<region> sample=Racktom3_Center_B_vel05_mic-Snare_Bottom.wav lovel=56 hivel=69
<region> sample=Racktom3_Center_B_vel06_mic-Snare_Bottom.wav lovel=70 hivel=83
<region> sample=Racktom3_Center_B_vel07_mic-Snare_Bottom.wav lovel=84 hivel=97
<region> sample=Racktom3_Center_B_vel08_mic-Snare_Bottom.wav lovel=98 hivel=111
<region> sample=Racktom3_Center_B_vel09_mic-Snare_Bottom.wav lovel=112 hivel=127
